<svg xmlns="http://www.w3.org/2000/svg" width="19" height="24" viewBox="0 0 19 24" fill="none"><path d="M6.62512 8.62503C0.7501 5.43752 0.929014 2.66716 4.7373 0.875003C5.79979 0.375001 7.3423 0 9.89216 0C12.0533 0 14.2193 0.322878 16.2319 1.13162C16.7679 1.347 17.0972 1.87969 17.0972 2.45734V9.62503C17.0972 10.0007 16.6976 10.2432 16.3565 10.0859C15.8126 9.83522 12.5626 7.56252 6.62512 8.62503Z" fill="url(#paint0_linear_18353_2)"></path><path d="M4.73721 0.874951C0.928923 2.66711 1.76158 4.94389 4.2019 7.00727C4.20084 7.00175 4.19984 6.99623 4.19891 6.99073C7.62544 9.90577 12.2418 10.5018 15.8327 13.0799C16.7927 13.7519 17.4887 14.5319 17.9207 15.4199C18.3527 16.3079 18.5687 17.4359 18.5687 18.8039C18.5687 21.6975 17.1349 23.25 16.3849 24C16.3849 19.3938 10.393 16.645 6.68864 15.0959C4.36063 14.1119 2.66863 13.0199 1.61263 11.8199C0.556623 10.6199 0 9.1439 0 7.3919C0 4.60473 1.98295 1.71718 4.81226 0.84021C4.78698 0.85172 4.76196 0.863302 4.73721 0.874951Z" fill="url(#paint1_linear_18353_2)"></path><defs><linearGradient id="paint0_linear_18353_2" x1="20.1409" y1="4.37017" x2="4.99715" y2="-0.706829" gradientUnits="userSpaceOnUse"><stop stop-color="#68ADF7"></stop><stop offset="1" stop-color="#3947A1"></stop></linearGradient><linearGradient id="paint1_linear_18353_2" x1="-1.11579e-07" y1="10.7354" x2="11.3236" y2="24.825" gradientUnits="userSpaceOnUse"><stop stop-color="#68ADF7"></stop><stop offset="0.52" stop-color="#5078CA"></stop><stop offset="1" stop-color="#3947A1"></stop></linearGradient></defs></svg>