<svg xmlns="http://www.w3.org/2000/svg" width="19" height="24" viewBox="0 0 19 24" fill="none"><path d="M6.58131 8.62505C0.74506 5.43751 0.922796 2.66716 4.70595 0.874998C5.76143 0.375001 7.29377 0 9.8268 0C11.9737 0 14.1254 0.322877 16.1247 1.13161C16.6572 1.34699 16.9843 1.87969 16.9843 2.45734V9.62502C16.9843 10.0007 16.5873 10.2432 16.2485 10.0859C15.7082 9.83518 12.4797 7.56252 6.58131 8.62505Z" fill="url(#paint0_linear_20100_4)"></path><path d="M4.70595 0.874958C0.92279 2.66711 1.74996 4.94389 4.17418 7.00727C4.17312 7.00175 4.17213 6.99623 4.1712 6.99073C7.57513 9.90573 12.161 10.5018 15.7282 13.0799C16.6819 13.7519 17.3732 14.5318 17.8025 15.4199C18.2316 16.3079 18.4461 17.4359 18.4461 18.8039C18.4461 21.6975 17.0218 23.25 16.2767 24C16.2767 19.3937 10.3244 16.645 6.64451 15.0959C4.33186 14.1119 2.65102 13.0199 1.60198 11.8198C0.55295 10.6199 0 9.14387 0 7.3919C0 4.60473 1.96987 1.71718 4.7805 0.84021C4.75539 0.851727 4.73054 0.863309 4.70595 0.874958Z" fill="url(#paint1_linear_20100_4)"></path><defs><linearGradient id="paint0_linear_20100_4" x1="20.0079" y1="4.37016" x2="4.94407" y2="-0.646726" gradientUnits="userSpaceOnUse"><stop stop-color="#9B51E6"></stop><stop offset="0.5" stop-color="#7A74EE"></stop><stop offset="1" stop-color="#5166E6"></stop></linearGradient><linearGradient id="paint1_linear_20100_4" x1="2.604e-07" y1="7.68884" x2="12.832" y2="24.462" gradientUnits="userSpaceOnUse"><stop stop-color="#CDC8E8"></stop><stop offset="0.677885" stop-color="#9B51E6"></stop><stop offset="1" stop-color="#5166E6"></stop></linearGradient></defs></svg>